<svg width="261" height="54" viewBox="0 0 261 54" fill="none" xmlns="http://www.w3.org/2000/svg">
<rect width="261" height="54" rx="10" fill="white"/>
<rect width="24" height="24" transform="translate(15 15)" fill="white"/>
<path fill-rule="evenodd" clip-rule="evenodd" d="M38.04 27.2614C38.04 26.4459 37.9668 25.6618 37.8309 24.9091H27V29.3575H33.1891C32.9225 30.795 32.1123 32.013 30.8943 32.8284V35.7139H34.6109C36.7855 33.7118 38.04 30.7637 38.04 27.2614Z" fill="#4285F4"/>
<path fill-rule="evenodd" clip-rule="evenodd" d="M26.9999 38.4998C30.1049 38.4998 32.7081 37.47 34.6108 35.7137L30.8942 32.8282C29.8644 33.5182 28.5472 33.9259 26.9999 33.9259C24.0047 33.9259 21.4694 31.903 20.5651 29.1848H16.7231V32.1644C18.6154 35.9228 22.5044 38.4998 26.9999 38.4998Z" fill="#34A853"/>
<path fill-rule="evenodd" clip-rule="evenodd" d="M20.5652 29.1851C20.3352 28.4951 20.2045 27.758 20.2045 27.0001C20.2045 26.2421 20.3352 25.5051 20.5652 24.8151V21.8355H16.7232C15.9443 23.388 15.5 25.1444 15.5 27.0001C15.5 28.8557 15.9443 30.6121 16.7232 32.1646L20.5652 29.1851Z" fill="#FBBC05"/>
<path fill-rule="evenodd" clip-rule="evenodd" d="M26.9999 20.0739C28.6883 20.0739 30.2042 20.6541 31.396 21.7936L34.6944 18.4952C32.7029 16.6395 30.0997 15.5 26.9999 15.5C22.5044 15.5 18.6154 18.077 16.7231 21.8355L20.5651 24.815C21.4694 22.0968 24.0047 20.0739 26.9999 20.0739Z" fill="#EA4335"/>
<path d="M63.8438 28.3711H66.2852C66.207 29.3021 65.9466 30.1322 65.5039 30.8613C65.0612 31.584 64.4395 32.1536 63.6387 32.5703C62.8379 32.987 61.8646 33.1953 60.7188 33.1953C59.8398 33.1953 59.0488 33.0391 58.3457 32.7266C57.6426 32.4076 57.0404 31.9583 56.5391 31.3789C56.0378 30.793 55.6536 30.0866 55.3867 29.2598C55.1263 28.4329 54.9961 27.5085 54.9961 26.4863V25.3047C54.9961 24.2826 55.1296 23.3581 55.3965 22.5312C55.6699 21.7044 56.0605 20.998 56.5684 20.4121C57.0762 19.8197 57.6849 19.3672 58.3945 19.0547C59.1107 18.7422 59.9147 18.5859 60.8066 18.5859C61.9395 18.5859 62.8965 18.7943 63.6777 19.2109C64.459 19.6276 65.0645 20.2038 65.4941 20.9395C65.9303 21.6751 66.1973 22.5182 66.2949 23.4688H63.8535C63.7884 22.8568 63.6452 22.3327 63.4238 21.8965C63.209 21.4603 62.89 21.1283 62.4668 20.9004C62.0436 20.666 61.4902 20.5488 60.8066 20.5488C60.2467 20.5488 59.7585 20.653 59.3418 20.8613C58.9251 21.0697 58.5768 21.3757 58.2969 21.7793C58.0169 22.1829 57.8053 22.681 57.6621 23.2734C57.5254 23.8594 57.457 24.5299 57.457 25.2852V26.4863C57.457 27.2025 57.5189 27.8535 57.6426 28.4395C57.7728 29.0189 57.9681 29.5169 58.2285 29.9336C58.4954 30.3503 58.834 30.6725 59.2441 30.9004C59.6543 31.1283 60.1458 31.2422 60.7188 31.2422C61.4154 31.2422 61.9785 31.1315 62.4082 30.9102C62.8444 30.6888 63.1732 30.3665 63.3945 29.9434C63.6224 29.5137 63.7721 28.9896 63.8438 28.3711ZM67.8281 27.834V27.6094C67.8281 26.8477 67.9388 26.1413 68.1602 25.4902C68.3815 24.8327 68.7005 24.263 69.1172 23.7812C69.5404 23.293 70.0547 22.9154 70.6602 22.6484C71.2721 22.375 71.9622 22.2383 72.7305 22.2383C73.5052 22.2383 74.1953 22.375 74.8008 22.6484C75.4128 22.9154 75.9303 23.293 76.3535 23.7812C76.7767 24.263 77.099 24.8327 77.3203 25.4902C77.5417 26.1413 77.6523 26.8477 77.6523 27.6094V27.834C77.6523 28.5957 77.5417 29.3021 77.3203 29.9531C77.099 30.6042 76.7767 31.1738 76.3535 31.6621C75.9303 32.1439 75.416 32.5215 74.8105 32.7949C74.2051 33.0618 73.5182 33.1953 72.75 33.1953C71.9753 33.1953 71.2819 33.0618 70.6699 32.7949C70.0645 32.5215 69.5501 32.1439 69.127 31.6621C68.7038 31.1738 68.3815 30.6042 68.1602 29.9531C67.9388 29.3021 67.8281 28.5957 67.8281 27.834ZM70.1816 27.6094V27.834C70.1816 28.3092 70.2305 28.7585 70.3281 29.1816C70.4258 29.6048 70.5788 29.9759 70.7871 30.2949C70.9954 30.6139 71.2624 30.8646 71.5879 31.0469C71.9134 31.2292 72.3008 31.3203 72.75 31.3203C73.1862 31.3203 73.5638 31.2292 73.8828 31.0469C74.2083 30.8646 74.4753 30.6139 74.6836 30.2949C74.8919 29.9759 75.0449 29.6048 75.1426 29.1816C75.2467 28.7585 75.2988 28.3092 75.2988 27.834V27.6094C75.2988 27.1406 75.2467 26.6979 75.1426 26.2812C75.0449 25.8581 74.8887 25.4837 74.6738 25.1582C74.4655 24.8327 74.1986 24.5788 73.873 24.3965C73.554 24.2077 73.1732 24.1133 72.7305 24.1133C72.2878 24.1133 71.9036 24.2077 71.5781 24.3965C71.2591 24.5788 70.9954 24.8327 70.7871 25.1582C70.5788 25.4837 70.4258 25.8581 70.3281 26.2812C70.2305 26.6979 70.1816 27.1406 70.1816 27.6094ZM81.959 24.6895V33H79.6055V22.4336H81.8223L81.959 24.6895ZM81.5391 27.3262L80.7773 27.3164C80.7839 26.5677 80.888 25.8809 81.0898 25.2559C81.2982 24.6309 81.5846 24.0938 81.9492 23.6445C82.3203 23.1953 82.763 22.8503 83.2773 22.6094C83.7917 22.362 84.3646 22.2383 84.9961 22.2383C85.5039 22.2383 85.9629 22.3099 86.373 22.4531C86.7897 22.5898 87.1445 22.8145 87.4375 23.127C87.737 23.4395 87.9648 23.8464 88.1211 24.3477C88.2773 24.8424 88.3555 25.4512 88.3555 26.1738V33H85.9922V26.1641C85.9922 25.6562 85.9173 25.2559 85.7676 24.9629C85.6243 24.6634 85.4128 24.4518 85.1328 24.3281C84.8594 24.1979 84.5176 24.1328 84.1074 24.1328C83.7038 24.1328 83.3424 24.2174 83.0234 24.3867C82.7044 24.556 82.4342 24.7871 82.2129 25.0801C81.998 25.373 81.832 25.7116 81.7148 26.0957C81.5977 26.4798 81.5391 26.89 81.5391 27.3262ZM95.6016 22.4336V24.1523H89.6445V22.4336H95.6016ZM91.3633 19.8457H93.7168V30.0801C93.7168 30.4056 93.7624 30.6562 93.8535 30.832C93.9512 31.0013 94.0846 31.1152 94.2539 31.1738C94.4232 31.2324 94.6217 31.2617 94.8496 31.2617C95.0124 31.2617 95.1686 31.252 95.3184 31.2324C95.4681 31.2129 95.5885 31.1934 95.6797 31.1738L95.6895 32.9707C95.4941 33.0293 95.2663 33.0814 95.0059 33.127C94.752 33.1725 94.459 33.1953 94.127 33.1953C93.5866 33.1953 93.1081 33.1009 92.6914 32.9121C92.2747 32.7168 91.9492 32.401 91.7148 31.9648C91.4805 31.5286 91.3633 30.9492 91.3633 30.2266V19.8457ZM99.9375 22.4336V33H97.5742V22.4336H99.9375ZM97.418 19.6602C97.418 19.3021 97.5352 19.0059 97.7695 18.7715C98.0104 18.5306 98.3424 18.4102 98.7656 18.4102C99.1823 18.4102 99.5111 18.5306 99.752 18.7715C99.9928 19.0059 100.113 19.3021 100.113 19.6602C100.113 20.0117 99.9928 20.3047 99.752 20.5391C99.5111 20.7734 99.1823 20.8906 98.7656 20.8906C98.3424 20.8906 98.0104 20.7734 97.7695 20.5391C97.5352 20.3047 97.418 20.0117 97.418 19.6602ZM104.85 24.6895V33H102.496V22.4336H104.713L104.85 24.6895ZM104.43 27.3262L103.668 27.3164C103.674 26.5677 103.779 25.8809 103.98 25.2559C104.189 24.6309 104.475 24.0938 104.84 23.6445C105.211 23.1953 105.654 22.8503 106.168 22.6094C106.682 22.362 107.255 22.2383 107.887 22.2383C108.395 22.2383 108.854 22.3099 109.264 22.4531C109.68 22.5898 110.035 22.8145 110.328 23.127C110.628 23.4395 110.855 23.8464 111.012 24.3477C111.168 24.8424 111.246 25.4512 111.246 26.1738V33H108.883V26.1641C108.883 25.6562 108.808 25.2559 108.658 24.9629C108.515 24.6634 108.303 24.4518 108.023 24.3281C107.75 24.1979 107.408 24.1328 106.998 24.1328C106.594 24.1328 106.233 24.2174 105.914 24.3867C105.595 24.556 105.325 24.7871 105.104 25.0801C104.889 25.373 104.723 25.7116 104.605 26.0957C104.488 26.4798 104.43 26.89 104.43 27.3262ZM120.006 30.5098V22.4336H122.369V33H120.143L120.006 30.5098ZM120.338 28.3125L121.129 28.293C121.129 29.0026 121.051 29.6569 120.895 30.2559C120.738 30.8483 120.497 31.3659 120.172 31.8086C119.846 32.2448 119.43 32.5866 118.922 32.834C118.414 33.0749 117.805 33.1953 117.096 33.1953C116.581 33.1953 116.109 33.1204 115.68 32.9707C115.25 32.821 114.879 32.5898 114.566 32.2773C114.26 31.9648 114.023 31.5579 113.854 31.0566C113.684 30.5553 113.6 29.9564 113.6 29.2598V22.4336H115.953V29.2793C115.953 29.6634 115.999 29.9857 116.09 30.2461C116.181 30.5 116.305 30.7051 116.461 30.8613C116.617 31.0176 116.799 31.1283 117.008 31.1934C117.216 31.2585 117.438 31.291 117.672 31.291C118.342 31.291 118.87 31.1608 119.254 30.9004C119.645 30.6335 119.921 30.2754 120.084 29.8262C120.253 29.377 120.338 28.8724 120.338 28.3125ZM129.439 33.1953C128.658 33.1953 127.952 33.0684 127.32 32.8145C126.695 32.554 126.161 32.1927 125.719 31.7305C125.283 31.2682 124.947 30.7246 124.713 30.0996C124.479 29.4746 124.361 28.8008 124.361 28.0781V27.6875C124.361 26.8607 124.482 26.112 124.723 25.4414C124.964 24.7708 125.299 24.1979 125.729 23.7227C126.158 23.2409 126.666 22.873 127.252 22.6191C127.838 22.3652 128.473 22.2383 129.156 22.2383C129.911 22.2383 130.572 22.3652 131.139 22.6191C131.705 22.873 132.174 23.2311 132.545 23.6934C132.923 24.1491 133.202 24.6927 133.385 25.3242C133.574 25.9557 133.668 26.6523 133.668 27.4141V28.4199H125.504V26.7305H131.344V26.5449C131.331 26.1217 131.246 25.7246 131.09 25.3535C130.94 24.9824 130.709 24.6829 130.396 24.4551C130.084 24.2272 129.667 24.1133 129.146 24.1133C128.756 24.1133 128.408 24.1979 128.102 24.3672C127.802 24.5299 127.551 24.7676 127.35 25.0801C127.148 25.3926 126.992 25.7702 126.881 26.2129C126.777 26.6491 126.725 27.1406 126.725 27.6875V28.0781C126.725 28.5404 126.786 28.9701 126.91 29.3672C127.04 29.7578 127.229 30.0996 127.477 30.3926C127.724 30.6855 128.023 30.9167 128.375 31.0859C128.727 31.2487 129.127 31.3301 129.576 31.3301C130.143 31.3301 130.647 31.2161 131.09 30.9883C131.533 30.7604 131.917 30.4382 132.242 30.0215L133.482 31.2227C133.255 31.5547 132.958 31.8737 132.594 32.1797C132.229 32.4792 131.783 32.7233 131.256 32.9121C130.735 33.1009 130.13 33.1953 129.439 33.1953ZM143.355 30.6562L145.797 22.4336H147.301L146.891 24.8945L144.43 33H143.082L143.355 30.6562ZM141.92 22.4336L143.824 30.6953L143.98 33H142.477L139.615 22.4336H141.92ZM149.586 30.5977L151.432 22.4336H153.727L150.875 33H149.371L149.586 30.5977ZM147.555 22.4336L149.967 30.5586L150.27 33H148.922L146.432 24.8848L146.021 22.4336H147.555ZM157.848 22.4336V33H155.484V22.4336H157.848ZM155.328 19.6602C155.328 19.3021 155.445 19.0059 155.68 18.7715C155.921 18.5306 156.253 18.4102 156.676 18.4102C157.092 18.4102 157.421 18.5306 157.662 18.7715C157.903 19.0059 158.023 19.3021 158.023 19.6602C158.023 20.0117 157.903 20.3047 157.662 20.5391C157.421 20.7734 157.092 20.8906 156.676 20.8906C156.253 20.8906 155.921 20.7734 155.68 20.5391C155.445 20.3047 155.328 20.0117 155.328 19.6602ZM165.27 22.4336V24.1523H159.312V22.4336H165.27ZM161.031 19.8457H163.385V30.0801C163.385 30.4056 163.43 30.6562 163.521 30.832C163.619 31.0013 163.753 31.1152 163.922 31.1738C164.091 31.2324 164.29 31.2617 164.518 31.2617C164.68 31.2617 164.837 31.252 164.986 31.2324C165.136 31.2129 165.257 31.1934 165.348 31.1738L165.357 32.9707C165.162 33.0293 164.934 33.0814 164.674 33.127C164.42 33.1725 164.127 33.1953 163.795 33.1953C163.255 33.1953 162.776 33.1009 162.359 32.9121C161.943 32.7168 161.617 32.401 161.383 31.9648C161.148 31.5286 161.031 30.9492 161.031 30.2266V19.8457ZM169.41 18V33H167.066V18H169.41ZM169 27.3262L168.238 27.3164C168.245 26.5872 168.346 25.9134 168.541 25.2949C168.743 24.6764 169.023 24.1393 169.381 23.6836C169.745 23.2214 170.182 22.8665 170.689 22.6191C171.197 22.3652 171.76 22.2383 172.379 22.2383C172.9 22.2383 173.368 22.3099 173.785 22.4531C174.208 22.5964 174.573 22.8275 174.879 23.1465C175.185 23.459 175.416 23.8691 175.572 24.377C175.735 24.8783 175.816 25.4902 175.816 26.2129V33H173.453V26.1934C173.453 25.6855 173.378 25.2819 173.229 24.9824C173.085 24.6829 172.874 24.4681 172.594 24.3379C172.314 24.2012 171.972 24.1328 171.568 24.1328C171.145 24.1328 170.771 24.2174 170.445 24.3867C170.126 24.556 169.859 24.7871 169.645 25.0801C169.43 25.373 169.267 25.7116 169.156 26.0957C169.052 26.4798 169 26.89 169 27.3262ZM194.332 25.7344V31.1641C194.13 31.431 193.814 31.724 193.385 32.043C192.962 32.3555 192.398 32.6257 191.695 32.8535C190.992 33.0814 190.117 33.1953 189.068 33.1953C188.176 33.1953 187.359 33.0456 186.617 32.7461C185.875 32.4401 185.234 31.9941 184.693 31.4082C184.16 30.8223 183.746 30.1094 183.453 29.2695C183.16 28.4232 183.014 27.4596 183.014 26.3789V25.3926C183.014 24.3184 183.147 23.3613 183.414 22.5215C183.688 21.6751 184.078 20.959 184.586 20.373C185.094 19.7871 185.706 19.3444 186.422 19.0449C187.145 18.7389 187.962 18.5859 188.873 18.5859C190.038 18.5859 191.002 18.7812 191.764 19.1719C192.532 19.556 193.124 20.0898 193.541 20.7734C193.958 21.457 194.221 22.2383 194.332 23.1172H191.93C191.852 22.6224 191.699 22.1797 191.471 21.7891C191.249 21.3984 190.93 21.0924 190.514 20.8711C190.104 20.6432 189.57 20.5293 188.912 20.5293C188.346 20.5293 187.848 20.6367 187.418 20.8516C186.988 21.0664 186.63 21.3822 186.344 21.7988C186.064 22.2155 185.852 22.7233 185.709 23.3223C185.566 23.9212 185.494 24.6048 185.494 25.373V26.3789C185.494 27.1602 185.576 27.8535 185.738 28.459C185.908 29.0645 186.148 29.5755 186.461 29.9922C186.78 30.4089 187.167 30.7246 187.623 30.9395C188.079 31.1478 188.593 31.252 189.166 31.252C189.726 31.252 190.185 31.2064 190.543 31.1152C190.901 31.0176 191.184 30.9036 191.393 30.7734C191.607 30.6367 191.773 30.5065 191.891 30.3828V27.5605H188.932V25.7344H194.332ZM196.363 27.834V27.6094C196.363 26.8477 196.474 26.1413 196.695 25.4902C196.917 24.8327 197.236 24.263 197.652 23.7812C198.076 23.293 198.59 22.9154 199.195 22.6484C199.807 22.375 200.497 22.2383 201.266 22.2383C202.04 22.2383 202.73 22.375 203.336 22.6484C203.948 22.9154 204.465 23.293 204.889 23.7812C205.312 24.263 205.634 24.8327 205.855 25.4902C206.077 26.1413 206.188 26.8477 206.188 27.6094V27.834C206.188 28.5957 206.077 29.3021 205.855 29.9531C205.634 30.6042 205.312 31.1738 204.889 31.6621C204.465 32.1439 203.951 32.5215 203.346 32.7949C202.74 33.0618 202.053 33.1953 201.285 33.1953C200.51 33.1953 199.817 33.0618 199.205 32.7949C198.6 32.5215 198.085 32.1439 197.662 31.6621C197.239 31.1738 196.917 30.6042 196.695 29.9531C196.474 29.3021 196.363 28.5957 196.363 27.834ZM198.717 27.6094V27.834C198.717 28.3092 198.766 28.7585 198.863 29.1816C198.961 29.6048 199.114 29.9759 199.322 30.2949C199.531 30.6139 199.798 30.8646 200.123 31.0469C200.449 31.2292 200.836 31.3203 201.285 31.3203C201.721 31.3203 202.099 31.2292 202.418 31.0469C202.743 30.8646 203.01 30.6139 203.219 30.2949C203.427 29.9759 203.58 29.6048 203.678 29.1816C203.782 28.7585 203.834 28.3092 203.834 27.834V27.6094C203.834 27.1406 203.782 26.6979 203.678 26.2812C203.58 25.8581 203.424 25.4837 203.209 25.1582C203.001 24.8327 202.734 24.5788 202.408 24.3965C202.089 24.2077 201.708 24.1133 201.266 24.1133C200.823 24.1133 200.439 24.2077 200.113 24.3965C199.794 24.5788 199.531 24.8327 199.322 25.1582C199.114 25.4837 198.961 25.8581 198.863 26.2812C198.766 26.6979 198.717 27.1406 198.717 27.6094ZM207.711 27.834V27.6094C207.711 26.8477 207.822 26.1413 208.043 25.4902C208.264 24.8327 208.583 24.263 209 23.7812C209.423 23.293 209.938 22.9154 210.543 22.6484C211.155 22.375 211.845 22.2383 212.613 22.2383C213.388 22.2383 214.078 22.375 214.684 22.6484C215.296 22.9154 215.813 23.293 216.236 23.7812C216.66 24.263 216.982 24.8327 217.203 25.4902C217.424 26.1413 217.535 26.8477 217.535 27.6094V27.834C217.535 28.5957 217.424 29.3021 217.203 29.9531C216.982 30.6042 216.66 31.1738 216.236 31.6621C215.813 32.1439 215.299 32.5215 214.693 32.7949C214.088 33.0618 213.401 33.1953 212.633 33.1953C211.858 33.1953 211.165 33.0618 210.553 32.7949C209.947 32.5215 209.433 32.1439 209.01 31.6621C208.587 31.1738 208.264 30.6042 208.043 29.9531C207.822 29.3021 207.711 28.5957 207.711 27.834ZM210.064 27.6094V27.834C210.064 28.3092 210.113 28.7585 210.211 29.1816C210.309 29.6048 210.462 29.9759 210.67 30.2949C210.878 30.6139 211.145 30.8646 211.471 31.0469C211.796 31.2292 212.184 31.3203 212.633 31.3203C213.069 31.3203 213.447 31.2292 213.766 31.0469C214.091 30.8646 214.358 30.6139 214.566 30.2949C214.775 29.9759 214.928 29.6048 215.025 29.1816C215.13 28.7585 215.182 28.3092 215.182 27.834V27.6094C215.182 27.1406 215.13 26.6979 215.025 26.2812C214.928 25.8581 214.771 25.4837 214.557 25.1582C214.348 24.8327 214.081 24.5788 213.756 24.3965C213.437 24.2077 213.056 24.1133 212.613 24.1133C212.171 24.1133 211.786 24.2077 211.461 24.3965C211.142 24.5788 210.878 24.8327 210.67 25.1582C210.462 25.4837 210.309 25.8581 210.211 26.2812C210.113 26.6979 210.064 27.1406 210.064 27.6094ZM226.275 22.4336H228.414V32.707C228.414 33.6576 228.212 34.4648 227.809 35.1289C227.405 35.793 226.842 36.2975 226.119 36.6426C225.396 36.9941 224.56 37.1699 223.609 37.1699C223.206 37.1699 222.757 37.1113 222.262 36.9941C221.773 36.877 221.298 36.6882 220.836 36.4277C220.38 36.1738 219.999 35.8385 219.693 35.4219L220.797 34.0352C221.174 34.4844 221.591 34.8132 222.047 35.0215C222.503 35.2298 222.981 35.334 223.482 35.334C224.023 35.334 224.482 35.2331 224.859 35.0312C225.243 34.8359 225.54 34.5462 225.748 34.1621C225.956 33.778 226.061 33.3092 226.061 32.7559V24.8262L226.275 22.4336ZM219.098 27.834V27.6289C219.098 26.8281 219.195 26.099 219.391 25.4414C219.586 24.7773 219.866 24.2077 220.23 23.7324C220.595 23.2507 221.038 22.8828 221.559 22.6289C222.079 22.3685 222.669 22.2383 223.326 22.2383C224.01 22.2383 224.592 22.362 225.074 22.6094C225.562 22.8568 225.969 23.2116 226.295 23.6738C226.62 24.1296 226.874 24.6764 227.057 25.3145C227.245 25.946 227.385 26.6491 227.477 27.4238V28.0781C227.392 28.8333 227.249 29.5234 227.047 30.1484C226.845 30.7734 226.578 31.3138 226.246 31.7695C225.914 32.2253 225.504 32.5768 225.016 32.8242C224.534 33.0716 223.964 33.1953 223.307 33.1953C222.662 33.1953 222.079 33.0618 221.559 32.7949C221.044 32.528 220.602 32.1536 220.23 31.6719C219.866 31.1901 219.586 30.6237 219.391 29.9727C219.195 29.3151 219.098 28.6022 219.098 27.834ZM221.451 27.6289V27.834C221.451 28.3158 221.497 28.765 221.588 29.1816C221.686 29.5983 221.832 29.9661 222.027 30.2852C222.229 30.5977 222.483 30.8451 222.789 31.0273C223.102 31.2031 223.469 31.291 223.893 31.291C224.446 31.291 224.898 31.1738 225.25 30.9395C225.608 30.7051 225.882 30.3893 226.07 29.9922C226.266 29.5885 226.402 29.1393 226.48 28.6445V26.877C226.441 26.4928 226.36 26.1348 226.236 25.8027C226.119 25.4707 225.96 25.181 225.758 24.9336C225.556 24.6797 225.302 24.4844 224.996 24.3477C224.69 24.2044 224.329 24.1328 223.912 24.1328C223.489 24.1328 223.121 24.224 222.809 24.4062C222.496 24.5885 222.239 24.8392 222.037 25.1582C221.842 25.4772 221.695 25.8483 221.598 26.2715C221.5 26.6947 221.451 27.1471 221.451 27.6289ZM233.375 18V33H231.012V18H233.375ZM240.611 33.1953C239.83 33.1953 239.124 33.0684 238.492 32.8145C237.867 32.554 237.333 32.1927 236.891 31.7305C236.454 31.2682 236.119 30.7246 235.885 30.0996C235.65 29.4746 235.533 28.8008 235.533 28.0781V27.6875C235.533 26.8607 235.654 26.112 235.895 25.4414C236.135 24.7708 236.471 24.1979 236.9 23.7227C237.33 23.2409 237.838 22.873 238.424 22.6191C239.01 22.3652 239.645 22.2383 240.328 22.2383C241.083 22.2383 241.744 22.3652 242.311 22.6191C242.877 22.873 243.346 23.2311 243.717 23.6934C244.094 24.1491 244.374 24.6927 244.557 25.3242C244.745 25.9557 244.84 26.6523 244.84 27.4141V28.4199H236.676V26.7305H242.516V26.5449C242.503 26.1217 242.418 25.7246 242.262 25.3535C242.112 24.9824 241.881 24.6829 241.568 24.4551C241.256 24.2272 240.839 24.1133 240.318 24.1133C239.928 24.1133 239.579 24.1979 239.273 24.3672C238.974 24.5299 238.723 24.7676 238.521 25.0801C238.32 25.3926 238.163 25.7702 238.053 26.2129C237.949 26.6491 237.896 27.1406 237.896 27.6875V28.0781C237.896 28.5404 237.958 28.9701 238.082 29.3672C238.212 29.7578 238.401 30.0996 238.648 30.3926C238.896 30.6855 239.195 30.9167 239.547 31.0859C239.898 31.2487 240.299 31.3301 240.748 31.3301C241.314 31.3301 241.819 31.2161 242.262 30.9883C242.704 30.7604 243.089 30.4382 243.414 30.0215L244.654 31.2227C244.426 31.5547 244.13 31.8737 243.766 32.1797C243.401 32.4792 242.955 32.7233 242.428 32.9121C241.907 33.1009 241.301 33.1953 240.611 33.1953Z" fill="black" fill-opacity="0.54"/>
</svg>
